# xmcd
#
# Track frame offsets: 
#        150
#        3875
#        16589
#        34249
#        39155
#        55366
#        73651
#        89379
#        92865
#        110611
#        130666
#        134533
#        150931
#        171290
#        185785
#        190226
#        209844
#        225407
#
# Disc length: 3241 seconds
#
# Revision: 1
# Processed by: cddbd v1.5.2PL0 Copyright (c) Steve Scherf et al.
# Submitted via: ExactAudioCopy v1.3
#
DISCID=ef0ca712
DTITLE=Хлоп-Ч. - С Запада На Восток
DYEAR=2005
DGENRE=Rap
TTITLE0=Интро
TTITLE1=Тихий Дом (Все Путем)
TTITLE2=С Запада На Восток
TTITLE3=Во, Бла...
TTITLE4=Бабки
TTITLE5=Еще! (RMX) feat. Повар
TTITLE6=Джиги-Ой
TTITLE7=Недоброе Утро feat. Никель
TTITLE8=Нельзя По-Другому feat. Никель
TTITLE9=Очисти Свой Разум feat. Повар and Феникс
TTITLE10=Брат
TTITLE11=Дикий Мир
TTITLE12=Открой Глаза feat. Campos
TTITLE13=Дырка
TTITLE14=Город
TTITLE15=Я Люблю Тебя, Жизнь
TTITLE16=В Гору
TTITLE17=С Запада На Восток (RMX) feat. Леприконсы [Bonus Track]
EXTD=
EXTT0=
EXTT1=
EXTT2=
EXTT3=
EXTT4=
EXTT5=
EXTT6=
EXTT7=
EXTT8=
EXTT9=
EXTT10=
EXTT11=
EXTT12=
EXTT13=
EXTT14=
EXTT15=
EXTT16=
EXTT17=
PLAYORDER=
